<?xml version="1.0" standalone="no"?>
<!DOCTYPE svg PUBLIC "-//W3C//DTD SVG 20010904//EN"
 "http://www.w3.org/TR/2001/REC-SVG-20010904/DTD/svg10.dtd">
<svg version="1.0" xmlns="http://www.w3.org/2000/svg"
 width="480.000000pt" height="480.000000pt" viewBox="0 0 480.000000 480.000000"
 preserveAspectRatio="xMidYMid meet">
<metadata>
Created by potrace 1.14, written by Peter Selinger 2001-2017
</metadata>
<g transform="translate(0.000000,480.000000) scale(0.100000,-0.100000)"
fill="#000000" stroke="none">
<path d="M631 4784 c-7 -8 -10 -18 -7 -21 3 -4 6 -2 6 3 1 5 7 -2 14 -15 12
-21 12 -27 -1 -39 -8 -8 -11 -22 -7 -31 7 -17 20 -82 30 -146 3 -21 8 -43 11
-48 3 -5 0 -13 -6 -17 -8 -5 -10 -19 -5 -44 9 -53 21 -34 33 57 15 110 14 191
-5 259 -17 61 -35 73 -63 42z"/>
<path d="M716 4769 c11 -55 23 -79 39 -79 8 0 15 9 15 19 0 28 -11 52 -21 45
-5 -3 -9 1 -9 9 0 8 -7 20 -15 27 -13 11 -14 8 -9 -21z"/>
<path d="M781 4761 c5 -21 13 -51 19 -65 5 -15 10 -42 10 -59 1 -18 7 -43 15
-57 18 -32 18 -40 0 -40 -8 0 -15 -9 -15 -20 0 -14 6 -20 17 -18 10 2 19 -5
21 -16 3 -14 0 -17 -12 -13 -9 4 -16 1 -16 -6 0 -7 -5 -4 -11 7 -7 10 -8 35
-5 58 5 28 2 43 -9 54 -19 20 -38 8 -29 -18 3 -11 10 -43 14 -72 5 -28 12 -64
16 -81 7 -27 6 -29 -10 -16 -14 12 -16 12 -10 -3 3 -9 1 -16 -5 -16 -8 0 -10
15 -5 49 3 27 2 51 -3 54 -5 3 -8 -6 -5 -22 2 -16 -1 -32 -7 -35 -7 -5 -11 12
-12 51 l-2 58 -8 -75 c-11 -97 -11 -105 -5 -165 2 -27 2 -42 0 -32 -3 9 -9 17
-14 17 -5 0 -10 12 -12 26 -2 17 -11 30 -25 35 -21 8 -23 5 -23 -26 0 -31 12
-43 42 -45 4 0 24 -16 44 -34 25 -23 35 -39 31 -50 -4 -10 -3 -15 2 -12 5 3
15 -2 22 -11 12 -14 12 -16 -1 -11 -34 11 -47 -43 -16 -64 20 -14 28 -8 12 8
-23 23 -20 30 4 9 15 -14 17 -21 9 -32 -9 -10 -7 -13 9 -13 11 0 22 -7 26 -15
7 -19 -4 -19 -32 1 -12 8 -30 14 -40 12 -13 -3 -9 -8 16 -21 17 -10 32 -19 32
-21 0 -4 -92 30 -122 45 -29 15 -21 -5 10 -23 32 -21 9 -25 -35 -6 -15 6 -50
12 -77 14 -27 1 -53 7 -59 13 -16 16 -27 13 -21 -4 4 -8 1 -22 -6 -30 -7 -9
-10 -18 -6 -22 3 -3 6 -1 6 5 0 7 5 12 11 12 6 0 9 -7 6 -14 -4 -10 -1 -13 9
-9 7 3 14 0 14 -5 0 -6 10 -13 23 -15 l22 -4 -23 -2 c-12 0 -26 -9 -29 -18 -4
-10 -11 -22 -17 -26 -7 -5 -6 -7 4 -6 39 4 45 -2 21 -21 -16 -14 -19 -21 -10
-24 73 -21 151 -37 175 -34 22 2 28 -1 25 -12 -2 -8 -4 -22 -5 -30 -1 -8 -8
-28 -14 -43 -7 -15 -15 -39 -18 -52 -3 -13 -14 -31 -25 -41 -18 -16 -19 -16
-19 14 0 32 0 32 -20 12 -11 -11 -20 -29 -20 -39 0 -11 -5 -21 -12 -23 -7 -3
-9 -12 -5 -22 4 -9 11 -15 16 -12 5 4 8 -39 7 -100 -2 -91 -1 -104 11 -88 7
10 11 25 8 35 -3 9 1 22 10 29 13 11 15 7 15 -33 0 -25 3 -52 6 -61 4 -10 1
-16 -9 -16 -8 0 -18 6 -20 13 -8 19 -6 -45 2 -73 4 -14 14 -24 23 -24 18 2 34
-70 22 -99 -5 -13 -2 -16 10 -11 11 4 16 1 16 -10 0 -10 6 -13 16 -9 10 4 14
13 10 29 -5 17 -1 26 14 34 17 9 20 17 14 46 -8 41 8 45 32 9 9 -14 32 -32 49
-40 19 -7 61 -47 100 -94 37 -45 71 -81 76 -81 6 0 8 -4 4 -9 -3 -5 2 -17 11
-25 9 -9 13 -24 10 -32 -8 -21 32 -92 55 -99 10 -4 29 -19 42 -35 14 -16 43
-34 66 -41 33 -10 44 -20 58 -51 17 -39 27 -46 38 -27 8 13 25 -9 61 -81 14
-28 32 -54 39 -57 14 -5 42 -45 77 -107 9 -17 17 -43 18 -58 0 -16 4 -28 9
-28 5 0 16 -18 25 -40 9 -22 19 -40 24 -40 4 0 12 -10 17 -22 6 -13 20 -24 32
-26 37 -5 36 -112 -2 -112 -8 0 -19 -9 -25 -20 -6 -11 -16 -20 -23 -20 -7 -1
-33 -21 -60 -45 l-47 -43 32 -11 c25 -8 50 -7 103 4 l70 15 25 -28 c45 -52 65
-85 62 -102 -4 -24 15 -36 78 -52 47 -12 56 -18 64 -44 22 -76 34 -93 76 -104
28 -8 44 -19 55 -40 16 -32 20 -86 6 -94 -4 -3 -11 -19 -14 -36 -10 -46 -51
-104 -90 -125 -48 -25 -53 -43 -23 -74 l26 -27 -24 -44 c-13 -25 -49 -94 -80
-153 -55 -104 -127 -299 -141 -382 -4 -22 -18 -66 -31 -98 -14 -32 -22 -62
-19 -66 2 -5 -3 -23 -12 -41 -8 -18 -21 -71 -28 -119 -6 -47 -16 -85 -21 -84
-6 1 -16 -30 -22 -69 -13 -72 -29 -97 -64 -98 -14 0 -18 -8 -18 -36 0 -38 -15
-74 -36 -87 -8 -4 -14 -15 -14 -22 0 -13 221 -15 1695 -15 l1695 0 0 1318 0
1317 -68 32 c-70 33 -87 48 -226 203 -96 107 -136 166 -171 255 -53 136 -52
135 -101 135 -23 0 -46 4 -49 10 -3 5 4 32 16 60 12 27 19 56 16 63 -3 7 3 18
12 24 13 8 18 26 19 67 1 54 10 77 63 165 11 18 18 39 15 46 -2 7 5 32 16 54
11 23 18 45 14 48 -4 5 -55 -12 -108 -35 -13 -6 -9 33 4 46 8 8 8 15 -2 27 -7
8 -8 15 -2 15 14 0 23 43 12 54 -7 7 -21 4 -40 -7 -37 -22 -39 -9 -5 23 14 13
24 29 21 35 -5 13 56 82 107 120 21 15 36 29 35 31 -8 8 -153 -18 -204 -35
-32 -12 -60 -19 -62 -16 -9 8 2 14 72 39 75 26 98 42 74 51 -24 10 -135 10
-235 1 -63 -6 -93 -5 -93 2 0 10 110 23 222 25 42 1 55 4 47 13 -7 8 -3 13 12
17 26 7 16 27 -14 27 -32 0 -52 46 -32 76 19 29 10 35 -24 18 -16 -8 -46 -16
-67 -18 -22 -2 -77 -9 -124 -15 -47 -6 -116 -10 -155 -9 -140 3 -287 0 -312
-7 -14 -3 -22 -2 -19 3 7 11 93 24 186 28 158 6 232 22 185 40 -8 4 -13 10
-10 14 6 9 -28 20 -65 20 -23 1 -23 2 -6 11 10 7 38 9 65 5 25 -3 76 -8 113
-11 62 -4 68 -3 86 20 23 28 28 30 46 13 9 -9 11 -20 5 -35 -5 -13 -6 -23 -3
-23 12 0 66 61 60 68 -4 3 -11 0 -16 -8 -5 -8 -12 -12 -15 -8 -4 3 13 25 36
47 23 23 39 44 36 48 -4 3 -20 -9 -37 -26 -31 -31 -50 -39 -50 -22 0 5 7 11
15 15 9 3 12 12 8 21 -4 11 -8 13 -13 5 -5 -8 -11 -6 -20 5 -11 13 -9 20 11
43 13 15 26 29 29 32 21 19 51 72 39 68 -8 -2 -20 -15 -26 -29 -7 -13 -13 -20
-13 -15 0 4 -11 1 -25 -8 -31 -20 -46 -21 -39 -1 8 19 -19 20 -35 1 -11 -13
-91 -27 -91 -16 0 3 22 23 50 45 29 23 54 53 61 72 5 17 13 33 17 35 4 2 18
18 31 36 l23 33 -136 -2 c-75 -1 -138 -5 -141 -9 -3 -5 -20 -6 -37 -2 -18 3
-213 6 -432 8 -374 2 -401 1 -415 -15 -9 -10 -26 -21 -38 -25 -11 -4 -27 -13
-33 -21 -7 -8 -21 -15 -31 -15 -11 0 -27 -4 -37 -10 -40 -22 -135 -61 -143
-58 -15 5 5 24 51 46 34 17 39 22 22 22 -13 0 -20 4 -17 10 3 6 17 10 29 10
26 0 137 34 164 49 11 7 -276 10 -888 8 l-905 -2 -17 -35 c-18 -38 -24 -28 -8
14 l10 26 -105 0 c-58 0 -105 -4 -105 -8 0 -5 7 -17 15 -28 8 -10 15 -27 15
-38 0 -15 -3 -16 -15 -6 -8 6 -19 9 -25 5 -5 -3 -10 0 -10 9 0 8 6 16 13 19
22 8 -23 47 -55 47 -31 0 -33 -5 -18 -47 9 -26 9 -27 -5 -9 -8 11 -15 28 -15
38 0 10 -4 18 -9 18 -5 0 -5 -16 0 -39z m449 -31 c-6 -12 -14 -20 -17 -17 -2
3 1 14 8 26 17 26 24 19 9 -9z m2743 7 c-52 -42 -68 -49 -29 -13 22 20 43 36
48 36 5 0 -3 -10 -19 -23z m-3073 -61 c0 -8 -7 -19 -15 -26 -9 -7 -13 -21 -10
-31 5 -14 2 -17 -9 -13 -9 3 -16 14 -16 24 0 10 -3 27 -6 37 -5 17 -5 17 9 0
14 -17 15 -16 21 8 7 26 26 26 26 1z m1680 -46 c-16 -11 -40 -13 -40 -5 0 8
44 24 50 18 2 -2 -2 -8 -10 -13z m1163 -47 c-7 -2 -21 -2 -30 0 -10 3 -4 5 12
5 17 0 24 -2 18 -5z m-2850 -33 c-3 -11 -1 -26 5 -33 6 -7 7 -18 3 -25 -6 -10
-12 -6 -24 12 -20 30 -21 48 -5 64 16 16 27 6 21 -18z m3051 -95 c-28 -13 -60
-22 -70 -20 -11 2 -25 4 -33 4 -11 1 -11 4 -1 15 11 14 33 18 120 23 35 2 34
2 -16 -22z m-517 9 c-3 -3 -12 -4 -19 -1 -8 3 -5 6 6 6 11 1 17 -2 13 -5z m71
-1 c-10 -2 -28 -2 -40 0 -13 2 -5 4 17 4 22 1 32 -1 23 -4z m-2748 -100 c0
-28 -3 -34 -10 -23 -13 20 -13 60 0 60 6 0 10 -17 10 -37z m70 -4 c0 -5 -4 -9
-10 -9 -5 0 -10 7 -10 16 0 8 5 12 10 9 6 -3 10 -10 10 -16z m3270 -77 c0 -19
-47 -50 -75 -50 l-30 1 25 11 c14 6 34 19 44 28 21 19 36 23 36 10z m-90 -92
c0 -5 -5 -10 -11 -10 -5 0 -7 5 -4 10 3 6 8 10 11 10 2 0 4 -4 4 -10z m-3455
-170 c3 -5 1 -10 -4 -10 -6 0 -11 5 -11 10 0 6 2 10 4 10 3 0 8 -4 11 -10z
m106 -7 c13 -15 12 -15 -8 -4 -24 12 -29 21 -14 21 5 0 15 -7 22 -17z m314
-23 c3 -5 1 -10 -4 -10 -6 0 -11 5 -11 10 0 6 2 10 4 10 3 0 8 -4 11 -10z m35
-24 c0 -2 -7 -9 -15 -16 -13 -11 -14 -10 -9 4 5 14 24 23 24 12z m44 -30 c-3
-8 -12 -12 -20 -9 -21 8 -17 23 6 23 13 0 18 -5 14 -14z m-169 -26 c3 -5 1
-10 -4 -10 -6 0 -11 5 -11 10 0 6 2 10 4 10 3 0 8 -4 11 -10z m63 -15 c-3 -3
-9 2 -12 12 -6 14 -5 15 5 6 7 -7 10 -15 7 -18z m173 -12 c13 -16 12 -17 -3
-4 -10 7 -18 15 -18 17 0 8 8 3 21 -13z m-351 -7 c0 -2 -7 -7 -16 -10 -8 -3
-12 -2 -9 4 6 10 25 14 25 6z m25 -96 c8 0 19 8 25 18 11 16 11 16 6 -1 -3
-10 -6 -22 -6 -27 0 -5 -9 -12 -21 -15 -11 -4 -24 -16 -29 -28 -7 -16 -8 -8
-6 28 5 59 7 66 13 43 2 -10 11 -18 18 -18z m685 20 c0 -5 -2 -10 -4 -10 -3 0
-8 5 -11 10 -3 6 -1 10 4 10 6 0 11 -4 11 -10z m-635 -88 c-12 -8 -29 -35 -51
-77 -13 -26 -14 -26 -9 -5 4 14 7 31 7 39 2 21 30 51 48 51 9 0 11 -3 5 -8z
m-190 -92 c-12 -19 -22 -10 -17 16 4 22 6 24 14 10 5 -9 6 -21 3 -26z m18
-110 c-3 -11 -9 -20 -14 -20 -5 0 -9 9 -9 20 0 11 6 20 14 20 9 0 12 -7 9 -20z
m2314 -164 c-11 -13 -27 -41 -34 -62 l-12 -39 6 45 c7 58 19 80 43 80 17 0 17
-1 -3 -24z m60 18 c-3 -3 -12 -4 -19 -1 -8 3 -5 6 6 6 11 1 17 -2 13 -5z
m-2307 -14 c0 -5 -2 -10 -4 -10 -3 0 -8 5 -11 10 -3 6 -1 10 4 10 6 0 11 -4
11 -10z m2441 -10 c35 -11 75 -27 89 -36 l25 -15 -25 6 c-14 4 -38 11 -55 16
-16 5 -59 18 -95 28 -52 15 -58 19 -34 20 18 1 60 -8 95 -19z m-2433 -64 c3
-12 -1 -17 -10 -14 -7 3 -15 13 -16 22 -3 12 1 17 10 14 7 -3 15 -13 16 -22z
m2625 -78 l-10 -43 0 53 c0 36 3 50 10 43 7 -7 7 -24 0 -53z m-2314 -68 c0 -9
-6 -4 -14 10 -19 33 -19 49 0 24 8 -10 14 -26 14 -34z m2288 -22 c-3 -7 -5 -2
-5 12 0 14 2 19 5 13 2 -7 2 -19 0 -25z m-2167 -86 c0 -7 -11 -1 -24 15 -13
15 -22 32 -19 37 7 10 42 -33 43 -52z m-81 31 c9 -10 27 -34 39 -54 12 -19 33
-48 48 -64 23 -25 24 -29 9 -37 -23 -14 -48 11 -80 80 -14 32 -31 65 -36 75
-5 9 -7 17 -4 17 3 0 14 -8 24 -17z m2178 -210 c-6 -29 -14 -53 -18 -53 -4 0
-5 -8 -2 -18 6 -25 -28 -60 -58 -59 -22 2 -24 6 -20 36 2 24 0 32 -8 26 -7 -4
-22 1 -33 12 -12 10 -18 12 -14 5 7 -11 4 -12 -13 -3 -17 9 -20 18 -15 39 4
15 8 28 8 29 1 1 19 -2 40 -8 42 -12 96 -4 96 14 0 7 4 6 10 -3 7 -11 11 -9
20 14 16 43 19 28 7 -31z m1078 -433 c-3 -5 -11 -10 -16 -10 -6 0 -7 5 -4 10
3 6 11 10 16 10 6 0 7 -4 4 -10z m-1015 -115 c0 -30 -15 -33 -30 -6 -14 27
-13 31 10 31 15 0 20 -7 20 -25z m65 -9 c25 -11 33 -19 29 -31 -4 -9 -13 -14
-21 -11 -8 3 -20 6 -26 6 -23 0 -38 17 -31 33 7 21 6 20 49 3z"/>
<path d="M4119 4778 c-12 -23 -12 -23 10 -4 23 21 26 26 11 26 -5 0 -15 -10
-21 -22z"/>
<path d="M781 4634 c0 -11 3 -14 6 -6 3 7 2 16 -1 19 -3 4 -6 -2 -5 -13z"/>
<path d="M4125 4520 c-3 -5 -2 -10 4 -10 5 0 13 5 16 10 3 6 2 10 -4 10 -5 0
-13 -4 -16 -10z"/>
<path d="M4160 4434 c0 -8 5 -12 10 -9 6 3 10 10 10 16 0 5 -4 9 -10 9 -5 0
-10 -7 -10 -16z"/>
<path d="M4012 4380 c-27 -25 -28 -31 -4 -23 23 8 42 24 42 34 0 15 -15 10
-38 -11z"/>
<path d="M3910 4360 c-11 -7 -6 -10 20 -10 26 0 31 3 20 10 -8 5 -17 10 -20
10 -3 0 -12 -5 -20 -10z"/>
<path d="M3728 4293 c6 -2 18 -2 25 0 6 3 1 5 -13 5 -14 0 -19 -2 -12 -5z"/>
<path d="M458 3853 c6 -2 18 -2 25 0 6 3 1 5 -13 5 -14 0 -19 -2 -12 -5z"/>
<path d="M606 3791 c-10 -17 -12 -32 -6 -36 5 -3 14 4 20 15 6 11 20 20 31 20
27 0 19 24 -9 28 -15 2 -25 -5 -36 -27z"/>
<path d="M656 3751 c-10 -11 -13 -21 -7 -25 10 -7 14 -3 24 27 8 22 4 22 -17
-2z"/>
<path d="M571 3534 c0 -11 3 -14 6 -6 3 7 2 16 -1 19 -3 4 -6 -2 -5 -13z"/>
</g>
</svg>
